<svg height='300px' width='300px'  fill="#FFFFFF" xmlns="http://www.w3.org/2000/svg" xmlns:xlink="http://www.w3.org/1999/xlink" version="1.1" x="0px" y="0px" viewBox="0 0 100 100" style="enable-background:new 0 0 100 100;" xml:space="preserve"><path d="M46,90.5h8c12.7,0,23-10.3,23-23v-35c0-12.7-10.3-23-23-23h-8c-12.7,0-23,10.3-23,23v35C23,80.2,33.3,90.5,46,90.5z   M29,32.5c0-9.4,7.6-17,17-17h8c9.4,0,17,7.6,17,17v35c0,9.4-7.6,17-17,17h-8c-9.4,0-17-7.6-17-17V32.5z"></path><path d="M50,41c1.7,0,3-1.3,3-3v-9c0-1.7-1.3-3-3-3s-3,1.3-3,3v9C47,39.7,48.3,41,50,41z"></path><polygon points="59.4,69.7 58.2,68.1 50,74.2 41.8,68.1 40.6,69.7 50,76.8 "></polygon><polygon points="59.4,61.7 58.2,60.1 50,66.2 41.8,60.1 40.6,61.7 50,68.8 "></polygon><polygon points="58.6,54.3 57.4,52.7 50,58.2 42.6,52.7 41.4,54.3 50,60.8 "></polygon></svg>