<?xml version="1.0" encoding="UTF-8" standalone="no"?>
<svg
   xmlns:dc="http://purl.org/dc/elements/1.1/"
   xmlns:cc="http://creativecommons.org/ns#"
   xmlns:rdf="http://www.w3.org/1999/02/22-rdf-syntax-ns#"
   xmlns:svg="http://www.w3.org/2000/svg"
   xmlns="http://www.w3.org/2000/svg"
   xmlns:sodipodi="http://sodipodi.sourceforge.net/DTD/sodipodi-0.dtd"
   xmlns:inkscape="http://www.inkscape.org/namespaces/inkscape"
   inkscape:version="1.0 (4035a4fb49, 2020-05-01)"
   sodipodi:docname="logo.svg"
   id="svg142"
   version="1.0"
   preserveAspectRatio="xMidYMid meet"
   height="55"
   viewBox="0 0 210.61427 41.249998"
   zoomAndPan="magnify"
   width="280.81903">
  <metadata
     id="metadata146">
    <rdf:RDF>
      <cc:Work
         rdf:about="">
        <dc:format>image/svg+xml</dc:format>
        <dc:type
           rdf:resource="http://purl.org/dc/dcmitype/StillImage" />
        <dc:title></dc:title>
      </cc:Work>
    </rdf:RDF>
  </metadata>
  <sodipodi:namedview
     inkscape:current-layer="svg142"
     inkscape:window-maximized="1"
     inkscape:window-y="-9"
     inkscape:window-x="-9"
     inkscape:cy="153.65854"
     inkscape:cx="250"
     inkscape:zoom="1.64"
     units="px"
     showgrid="false"
     id="namedview144"
     inkscape:window-height="991"
     inkscape:window-width="1920"
     inkscape:pageshadow="2"
     inkscape:pageopacity="0"
     guidetolerance="10"
     gridtolerance="10"
     objecttolerance="10"
     borderopacity="1"
     bordercolor="#666666"
     pagecolor="#ffffff" />
  <defs
     id="defs4">
    <g
       id="g2" />
  </defs>
  <g
     transform="translate(-82.189023,-167.25)"
     id="g12"
     fill-opacity="1"
     fill="#d9d9d9">
    <g
       id="g10"
       transform="translate(102.35638,207.37499)">
      <g
         id="g8">
        <path
           id="path6"
           d="m 16.171875,-28.8125 v 6.625 h 16.125 v 9.828125 h -16.125 V 0 H 3.140625 V -38.640625 H 34.5625 v 9.828125 z m 0,0" />
      </g>
    </g>
  </g>
  <g
     transform="translate(-82.189023,-167.25)"
     id="g20"
     fill-opacity="1"
     fill="#d9d9d9">
    <g
       id="g18"
       transform="translate(137.90221,207.37499)">
      <g
         id="g16">
        <path
           id="path14"
           d="m 3.140625,-38.640625 h 13.03125 V 0 H 3.140625 Z m 0,0" />
      </g>
    </g>
  </g>
  <g
     transform="translate(-82.189023,-167.25)"
     id="g28"
     fill-opacity="1"
     fill="#d9d9d9">
    <g
       id="g26"
       transform="translate(157.22059,207.37499)">
      <g
         id="g24">
        <path
           id="path22"
           d="m 19.703125,-9.71875 h -3.53125 V 0 H 3.140625 V -38.640625 H 21.75 c 3.570312,0 6.679688,0.589844 9.328125,1.765625 2.644531,1.179688 4.6875,2.871094 6.125,5.078125 1.4375,2.210937 2.15625,4.789063 2.15625,7.734375 0,2.761719 -0.625,5.171875 -1.875,7.234375 -1.25,2.054687 -3.054687,3.6875 -5.40625,4.90625 L 40.1875,0 H 26.28125 Z M 26.21875,-24.0625 c 0,-1.4375 -0.445312,-2.550781 -1.328125,-3.34375 -0.875,-0.789062 -2.199219,-1.1875 -3.96875,-1.1875 h -4.75 v 9.046875 h 4.75 c 1.769531,0 3.09375,-0.394531 3.96875,-1.1875 0.882813,-0.789063 1.328125,-1.898437 1.328125,-3.328125 z m 0,0" />
      </g>
    </g>
  </g>
  <g
     transform="translate(-82.189023,-167.25)"
     id="g36"
     fill-opacity="1"
     fill="#d9d9d9">
    <g
       id="g34"
       transform="translate(198.34115,207.37499)">
      <g
         id="g32">
        <path
           id="path30"
           d="M 17.546875,0.890625 C 14.347656,0.890625 11.226562,0.53125 8.1875,-0.1875 5.15625,-0.90625 2.664062,-1.875 0.71875,-3.09375 l 4.1875,-9.5 c 1.84375,1.074219 3.90625,1.933594 6.1875,2.578125 2.28125,0.648437 4.472656,0.96875 6.578125,0.96875 1.800781,0 3.085937,-0.175781 3.859375,-0.53125 0.769531,-0.351563 1.15625,-0.878906 1.15625,-1.578125 0,-0.800781 -0.507812,-1.40625 -1.515625,-1.8125 -1.011719,-0.40625 -2.679687,-0.847656 -5,-1.328125 -2.980469,-0.625 -5.464844,-1.296875 -7.453125,-2.015625 C 6.726562,-17.03125 5,-18.207031 3.53125,-19.84375 2.0625,-21.476562 1.328125,-23.695312 1.328125,-26.5 c 0,-2.425781 0.675781,-4.632812 2.03125,-6.625 1.363281,-1.988281 3.398437,-3.550781 6.109375,-4.6875 2.707031,-1.144531 5.992188,-1.71875 9.859375,-1.71875 2.644531,0 5.242187,0.289062 7.796875,0.859375 2.5625,0.574219 4.816406,1.414063 6.765625,2.515625 l -3.921875,9.4375 c -3.78125,-1.914062 -7.371094,-2.875 -10.765625,-2.875 -3.34375,0 -5.015625,0.8125 -5.015625,2.4375 0,0.773438 0.492188,1.351562 1.484375,1.734375 1,0.386719 2.640625,0.804687 4.921875,1.25 2.9375,0.554687 5.414062,1.1875 7.4375,1.90625 2.03125,0.710937 3.789062,1.875 5.28125,3.5 1.488281,1.617187 2.234375,3.824219 2.234375,6.625 0,2.429687 -0.683594,4.625 -2.046875,6.59375 -1.355469,1.96875 -3.386719,3.539063 -6.09375,4.703125 -2.710938,1.15625 -5.996094,1.734375 -9.859375,1.734375 z m 0,0" />
      </g>
    </g>
  </g>
  <g
     transform="translate(-82.189023,-167.25)"
     id="g44"
     fill-opacity="1"
     fill="#d9d9d9">
    <g
       id="g42"
       transform="translate(234.60453,207.37499)">
      <g
         id="g40">
        <path
           id="path38"
           d="M 11.53125,-28.546875 H 0.21875 v -10.09375 H 35.875 v 10.09375 H 24.5625 V 0 H 11.53125 Z m 0,0" />
      </g>
    </g>
  </g>
  <g
     transform="translate(-82.189023,-167.25)"
     id="g52"
     fill-opacity="1"
     fill="#000000">
    <g
       id="g50"
       transform="translate(82.080469,202.49999)">
      <g
         id="g48">
        <path
           id="path46"
           d="M 25.792969,-4.214844 25.527344,-4.40625 c -1.632813,2.011719 -5.128906,3.304688 -8.015625,3.304688 -6.535157,0 -12.34375,-6.269532 -12.34375,-14.246094 0,-7.101563 4.519531,-10.976563 9.875,-10.976563 5.8125,0 8.851562,4.558594 6.761719,9.417969 l 0.113281,0.03906 4.445312,-6.265624 C 24.617188,-25.261719 21.539062,-27.125 16.753906,-27.125 c -7.828125,0 -15.042968,5.207031 -15.042968,13.792969 0,8.28125 6.644531,13.863281 14.359374,13.863281 4.746094,0 8.089844,-2.164062 9.722657,-4.746094 z m 0,0" />
      </g>
    </g>
  </g>
  <g
     transform="translate(-82.189023,-167.25)"
     id="g60"
     fill-opacity="1"
     fill="#000000">
    <g
       id="g58"
       transform="translate(109.57831,202.49999)">
      <g
         id="g56">
        <path
           id="path54"
           d="m 11.207031,-18.652344 c -5.585937,0 -9.6875,3.875 -9.6875,9.460938 0,5.582031 4.101563,9.457031 9.6875,9.457031 5.582031,0 9.6875,-3.875 9.6875,-9.457031 0,-5.585938 -4.105469,-9.460938 -9.6875,-9.460938 z M 12.6875,-0.378906 c -4.785156,0 -8.203125,-5.699219 -8.203125,-11.054688 0,-4.101562 2.085937,-6.574218 5.242187,-6.574218 4.785157,0 8.203126,5.699218 8.203126,11.019531 0,4.140625 -2.089844,6.609375 -5.242188,6.609375 z m 0,0" />
      </g>
    </g>
  </g>
  <g
     transform="translate(-82.189023,-167.25)"
     id="g68"
     fill-opacity="1"
     fill="#000000">
    <g
       id="g66"
       transform="translate(131.98677,202.49999)">
      <g
         id="g64">
        <path
           id="path62"
           d="m 16.257812,0 h 4.445313 C 19.5625,-0.757812 19.222656,-1.480469 19.222656,-3.53125 v -8.207031 c 0,-5.734375 -2.8125,-6.914063 -5.320312,-6.914063 -3.34375,0 -6.152344,2.128906 -8.46875,3.648438 v -0.800782 l 0.1875,-2.808593 -5.242188,0.570312 v 0.152344 c 0.796875,0.07422 1.785156,0.339844 2.316406,0.683594 V -2.621094 L 2.46875,0 H 6.914062 C 5.773438,-0.757812 5.433594,-1.480469 5.433594,-3.53125 v -10.675781 c 2.277344,-1.519531 4.101562,-2.886719 6.496094,-2.886719 2.085937,0 4.558593,1.0625 4.558593,5.429688 v 9.042968 z m 0,0" />
      </g>
    </g>
  </g>
  <g
     transform="translate(-82.189023,-167.25)"
     id="g76"
     fill-opacity="1"
     fill="#000000">
    <g
       id="g74"
       transform="translate(153.82551,202.49999)">
      <g
         id="g72">
        <path
           id="path70"
           d="m 4.75,0.609375 h 0.796875 l 4.214844,-1.292969 v -0.152344 l -4.214844,0.152344 v -16.828125 h 4.367187 l 0.191407,-0.914062 H 5.546875 V -23.25 l 0.304687,-1.441406 -6.042968,2.773437 v 0.226563 C 2.242188,-22.414062 2.8125,-22.527344 2.8125,-20.929688 V -2.621094 L 2.695312,-0.34375 Z m 0,0" />
      </g>
    </g>
  </g>
  <g
     transform="translate(-82.189023,-167.25)"
     id="g84"
     fill-opacity="1"
     fill="#000000">
    <g
       id="g82"
       transform="translate(164.53599,202.49999)">
      <g
         id="g80">
        <path
           id="path78"
           d="m 11.433594,-18.613281 c -2.46875,0 -4.632813,1.59375 -5.507813,4.027343 H 5.433594 v -1.21875 l 0.1875,-2.808593 -5.242188,0.570312 v 0.152344 c 0.796875,0.07422 1.785156,0.339844 2.316406,0.683594 V -2.621094 L 2.507812,0 h 4.40625 C 5.773438,-0.757812 5.433594,-1.480469 5.433594,-3.53125 V -11.625 c 0.417968,-2.660156 1.785156,-5.164062 3.835937,-5.164062 1.101563,0 2.125,0.683593 1.023438,3.378906 h 0.152343 l 2.964844,-4.746094 C 12.6875,-18.5 12.078125,-18.613281 11.433594,-18.613281 Z m 0,0" />
      </g>
    </g>
  </g>
  <g
     transform="translate(-82.189023,-167.25)"
     id="g92"
     fill-opacity="1"
     fill="#000000">
    <g
       id="g90"
       transform="translate(178.5128,202.49999)">
      <g
         id="g88">
        <path
           id="path86"
           d="m 3.796875,-23.210938 c 1.027344,0 1.824219,-0.796874 1.824219,-1.859374 0,-1.027344 -0.796875,-1.824219 -1.824219,-1.824219 -1.0625,0 -1.859375,0.796875 -1.859375,1.824219 0,1.0625 0.796875,1.859374 1.859375,1.859374 z M 2.46875,0 H 6.914062 C 5.773438,-0.757812 5.433594,-1.480469 5.433594,-3.53125 v -12.273438 l 0.1875,-2.808593 -5.242188,0.570312 v 0.152344 c 0.796875,0.07422 1.785156,0.339844 2.316406,0.683594 v 14.585937 z m 0,0" />
      </g>
    </g>
  </g>
  <g
     transform="translate(-82.189023,-167.25)"
     id="g100"
     fill-opacity="1"
     fill="#000000">
    <g
       id="g98"
       transform="translate(186.56465,202.49999)">
      <g
         id="g96">
        <path
           id="path94"
           d="m 10.941406,-18.652344 c -2.585937,0 -4.445312,0.722656 -5.699218,1.710938 V -27.3125 l 0.191406,-1.367188 -5.8125,2.773438 v 0.226562 c 2.316406,-0.722656 2.886718,-0.910156 2.886718,0.609376 v 20.585937 c 0,2.472656 -0.570312,3.191406 -1.824218,3.421875 v 0.035156 c 3.417968,1.1015628 6.078125,1.292969 7.824218,1.292969 7.902344,0 11.472657,-4.253906 11.472657,-9.839844 0,-5.429687 -3.304688,-9.078125 -9.039063,-9.078125 z m -0.34375,18.160156 c -2.429687,0 -4.101562,-0.761718 -5.355468,-1.863281 V -16.03125 c 0.988281,-0.988281 2.429687,-1.707031 4.214843,-1.707031 4.292969,0 7.484375,3.910156 7.484375,10.066406 0,5.773437 -2.886718,7.179687 -6.34375,7.179687 z m 0,0" />
      </g>
    </g>
  </g>
  <g
     transform="translate(-82.189023,-167.25)"
     id="g108"
     fill-opacity="1"
     fill="#000000">
    <g
       id="g106"
       transform="translate(208.06158,202.49999)">
      <g
         id="g104">
        <path
           id="path102"
           d="M 19.144531,-1.214844 V -15.804688 L 19.375,-18.425781 h -5.015625 v 0.07813 c 1.710937,0.757812 2.050781,1.480468 2.050781,3.53125 v 10.371094 c -2.203125,1.632812 -4.101562,3.152343 -6.722656,3.152343 -1.863281,0 -4.332031,-1.0625 -4.332031,-5.429687 v -9.082032 l 0.230469,-2.621093 H 0.570312 v 0.07813 c 1.707032,0.757812 2.050782,1.480468 2.050782,3.53125 v 8.167968 c 0,5.738282 2.8125,6.914063 5.089844,6.914063 3.570312,0 6.457031,-2.277344 8.699218,-3.914063 v 3.839844 l 4.863282,-0.570312 V -0.53125 C 20.664062,-0.609375 19.675781,-0.875 19.144531,-1.214844 Z m 0,0" />
      </g>
    </g>
  </g>
  <g
     transform="translate(-82.189023,-167.25)"
     id="g116"
     fill-opacity="1"
     fill="#000000">
    <g
       id="g114"
       transform="translate(229.90033,202.49999)">
      <g
         id="g112">
        <path
           id="path110"
           d="m 4.75,0.609375 h 0.796875 l 4.214844,-1.292969 v -0.152344 l -4.214844,0.152344 v -16.828125 h 4.367187 l 0.191407,-0.914062 H 5.546875 V -23.25 l 0.304687,-1.441406 -6.042968,2.773437 v 0.226563 C 2.242188,-22.414062 2.8125,-22.527344 2.8125,-20.929688 V -2.621094 L 2.695312,-0.34375 Z m 0,0" />
      </g>
    </g>
  </g>
  <g
     transform="translate(-82.189023,-167.25)"
     id="g124"
     fill-opacity="1"
     fill="#000000">
    <g
       id="g122"
       transform="translate(240.6108,202.49999)">
      <g
         id="g120">
        <path
           id="path118"
           d="m 3.796875,-23.210938 c 1.027344,0 1.824219,-0.796874 1.824219,-1.859374 0,-1.027344 -0.796875,-1.824219 -1.824219,-1.824219 -1.0625,0 -1.859375,0.796875 -1.859375,1.824219 0,1.0625 0.796875,1.859374 1.859375,1.859374 z M 2.46875,0 H 6.914062 C 5.773438,-0.757812 5.433594,-1.480469 5.433594,-3.53125 v -12.273438 l 0.1875,-2.808593 -5.242188,0.570312 v 0.152344 c 0.796875,0.07422 1.785156,0.339844 2.316406,0.683594 v 14.585937 z m 0,0" />
      </g>
    </g>
  </g>
  <g
     transform="translate(-82.189023,-167.25)"
     id="g132"
     fill-opacity="1"
     fill="#000000">
    <g
       id="g130"
       transform="translate(248.66266,202.49999)">
      <g
         id="g128">
        <path
           id="path126"
           d="m 11.207031,-18.652344 c -5.585937,0 -9.6875,3.875 -9.6875,9.460938 0,5.582031 4.101563,9.457031 9.6875,9.457031 5.582031,0 9.6875,-3.875 9.6875,-9.457031 0,-5.585938 -4.105469,-9.460938 -9.6875,-9.460938 z M 12.6875,-0.378906 c -4.785156,0 -8.203125,-5.699219 -8.203125,-11.054688 0,-4.101562 2.085937,-6.574218 5.242187,-6.574218 4.785157,0 8.203126,5.699218 8.203126,11.019531 0,4.140625 -2.089844,6.609375 -5.242188,6.609375 z m 0,0" />
      </g>
    </g>
  </g>
  <g
     transform="translate(-82.189023,-167.25)"
     id="g140"
     fill-opacity="1"
     fill="#000000">
    <g
       id="g138"
       transform="translate(271.07112,202.49999)">
      <g
         id="g136">
        <path
           id="path134"
           d="m 16.257812,0 h 4.445313 C 19.5625,-0.757812 19.222656,-1.480469 19.222656,-3.53125 v -8.207031 c 0,-5.734375 -2.8125,-6.914063 -5.320312,-6.914063 -3.34375,0 -6.152344,2.128906 -8.46875,3.648438 v -0.800782 l 0.1875,-2.808593 -5.242188,0.570312 v 0.152344 c 0.796875,0.07422 1.785156,0.339844 2.316406,0.683594 V -2.621094 L 2.46875,0 H 6.914062 C 5.773438,-0.757812 5.433594,-1.480469 5.433594,-3.53125 v -10.675781 c 2.277344,-1.519531 4.101562,-2.886719 6.496094,-2.886719 2.085937,0 4.558593,1.0625 4.558593,5.429688 v 9.042968 z m 0,0" />
      </g>
    </g>
  </g>
</svg>
