<?xml version="1.0" encoding="utf-8"?>
<svg viewBox="0 0 100 100" fill="#007EE5" style="enable-background:new 0 0 100 100;" xmlns="http://www.w3.org/2000/svg">
  <path d="M46,90.5h8c12.7,0,23-10.3,23-23v-35c0-12.7-10.3-23-23-23h-8c-12.7,0-23,10.3-23,23v35C23,80.2,33.3,90.5,46,90.5z   M29,32.5c0-9.4,7.6-17,17-17h8c9.4,0,17,7.6,17,17v35c0,9.4-7.6,17-17,17h-8c-9.4,0-17-7.6-17-17V32.5z"/>
  <path d="M50,41c1.7,0,3-1.3,3-3v-9c0-1.7-1.3-3-3-3s-3,1.3-3,3v9C47,39.7,48.3,41,50,41z"/>
  <polygon points="59.4 75.2 58.2 76.8 50 70.7 41.8 76.8 40.6 75.2 50 68.1"/>
  <polygon points="59.4 67.2 58.2 68.8 50 62.7 41.8 68.8 40.6 67.2 50 60.1"/>
  <polygon points="58.6 54.3 57.4 52.7 50 58.2 42.6 52.7 41.4 54.3 50 60.8" transform="matrix(-1, 0, 0, -1, 100, 113.5)"/>
</svg>